<svg width="30" height="30" viewBox="0 0 30 30" fill="none" xmlns="http://www.w3.org/2000/svg">
<path d="M12.6729 13.2872C12.3239 13.2873 11.9889 13.4259 11.7421 13.6728C11.4953 13.9196 11.3567 14.2543 11.3567 14.6034C11.3567 14.9524 11.4954 15.2872 11.7422 15.534C11.989 15.7808 12.3238 15.9194 12.6728 15.9194C13.0219 15.9194 13.3566 15.7808 13.6034 15.534C13.8502 15.2872 13.9889 14.9524 13.9889 14.6034C13.9889 14.2543 13.8503 13.9196 13.6035 13.6728C13.3567 13.4259 13.0219 13.2873 12.6729 13.2872ZM17.3657 13.2872C17.0783 13.2629 16.7903 13.3259 16.5392 13.468C16.2882 13.6101 16.086 13.8246 15.9589 14.0836C15.8319 14.3425 15.786 14.6338 15.8272 14.9193C15.8685 15.2048 15.995 15.4711 16.1902 15.6835C16.3853 15.8959 16.6401 16.0444 16.921 16.1096C17.202 16.1748 17.4961 16.1537 17.7649 16.0489C18.0336 15.9442 18.2645 15.7607 18.4273 15.5226C18.59 15.2845 18.6771 15.0028 18.6771 14.7143C18.6848 14.5345 18.6569 14.3549 18.5952 14.1859C18.5334 14.0168 18.4389 13.8616 18.3171 13.729C18.1954 13.5965 18.0486 13.4893 17.8854 13.4135C17.7222 13.3377 17.5456 13.2948 17.3657 13.2872ZM23.6142 2.50012H6.38581C6.03882 2.50094 5.6954 2.5701 5.37514 2.70365C5.05489 2.83721 4.76408 3.03253 4.51932 3.27848C4.27456 3.52443 4.08064 3.81619 3.94864 4.13708C3.81664 4.45798 3.74915 4.80174 3.75001 5.14872V22.5316C3.74916 22.8785 3.81667 23.2223 3.94867 23.5432C4.08068 23.8641 4.2746 24.1558 4.51936 24.4017C4.76411 24.6477 5.05492 24.843 5.37517 24.9766C5.69541 25.1101 6.03883 25.1793 6.38581 25.1801H20.9657L20.2843 22.8015L21.9299 24.3315L23.4857 25.7715L26.25 28.2144V5.14872C26.2509 4.80174 26.1834 4.45798 26.0514 4.13708C25.9194 3.81619 25.7255 3.52443 25.4807 3.27848C25.2359 3.03253 24.9451 2.83721 24.6249 2.70365C24.3046 2.5701 23.9612 2.50094 23.6142 2.50012ZM18.6514 19.2915C18.6514 19.2915 18.1885 18.7387 17.8027 18.2501C18.7347 18.0307 19.5591 17.4887 20.13 16.7201C19.6674 17.028 19.1714 17.2825 18.6514 17.4786C18.0533 17.7339 17.4277 17.9195 16.7871 18.0315C15.686 18.2342 14.5567 18.2299 13.4572 18.0187C12.8116 17.8923 12.179 17.7073 11.5671 17.4659C11.2446 17.3418 10.931 17.1957 10.6285 17.0287C10.5899 17.0029 10.5515 16.9901 10.5129 16.9644C10.4935 16.9548 10.4761 16.9417 10.4614 16.9259C10.2301 16.7973 10.1013 16.7073 10.1013 16.7073C10.6516 17.4597 11.4475 17.9963 12.3514 18.2244C11.9658 18.713 11.49 19.2915 11.49 19.2915C10.7263 19.3121 9.96922 19.1446 9.28542 18.8038C8.60162 18.4631 8.01208 17.9594 7.56867 17.3372C7.61042 14.7307 8.24344 12.1677 9.42001 9.84151C10.4555 9.02829 11.7178 8.55658 13.0328 8.49151L13.1613 8.64586C11.9241 8.95199 10.7697 9.52704 9.78001 10.3301C9.78001 10.3301 10.0629 10.1758 10.5385 9.95725C11.4628 9.53534 12.4478 9.262 13.4573 9.14731C13.5293 9.13233 13.6024 9.1237 13.6759 9.12152C14.5375 9.00929 15.4094 9.00068 16.273 9.09589C17.6311 9.25096 18.9458 9.67024 20.143 10.3301C19.2035 9.56536 18.1124 9.00881 16.9417 8.69725L17.1216 8.49163C18.4366 8.55666 19.699 9.02837 20.7345 9.84163C21.9111 12.1678 22.5442 14.7308 22.586 17.3373C22.1389 17.9589 21.5468 18.4618 20.8611 18.8024C20.1754 19.143 19.4168 19.3109 18.6514 19.2915Z" fill="#DBDBDB"/>
</svg>
